# xmcd CD database file
#
# Track frame offsets:
#	150
#	14182
#	28069
#	41484
#	52490
#	67314
#	81514
#	95721
#	108885
#	124059
#	138149
#	152548
#
# Disc length: 2221 seconds
#
# Revision: 0
# Processed by: cddbd v1.5.1PL0 Copyright (c) Steve Scherf et al.
# Submitted via: CDex 1.51
#
DISCID=af08ab0c
DTITLE=Billie Holiday - Just Women
DYEAR=1900
DGENRE=Jazz
TTITLE0=I Wished On The Moon
TTITLE1=The Man I Love
TTITLE2=Body and Soul
TTITLE3=Romance In The Dark
TTITLE4=Those Foolish Things
TTITLE5=God Bless The Child
TTITLE6=Strange Fruit
TTITLE7=My Man
TTITLE8=Don't Explain
TTITLE9=Mean to Me
TTITLE10=He's Funny That Way
TTITLE11=Good Morning Heartache
EXTD=
EXTT0=
EXTT1=
EXTT2=
EXTT3=
EXTT4=
EXTT5=
EXTT6=
EXTT7=
EXTT8=
EXTT9=
EXTT10=
EXTT11=
PLAYORDER=
